<svg version="1.1" xmlns="http://www.w3.org/2000/svg" viewBox="0 0 1024 1024">
<path d="M0 0 C26.686 -0.238 53.344 0.399 80.02 1.091 C83.808 1.189 87.596 1.286 91.385 1.382 C171.26 3.427 251.128 5.924 362.162 10.064 C365.26 10.185 368.359 10.306 371.458 10.426 C410.094 11.928 440.974 15.571 476.438 31.688 C477.342 32.097 478.246 32.507 479.178 32.93 C496.811 40.925 514.308 49.193 531.772 57.548 C540.251 61.603 548.749 65.616 557.25 69.625 C559.466 70.671 561.683 71.716 563.899 72.762 C565.372 73.457 566.844 74.151 568.316 74.846 C573.634 77.354 578.95 79.868 584.266 82.383 C587.344 83.839 590.422 85.294 593.5 86.75 C594.256 87.108 595.012 87.465 595.791 87.834 C605.485 92.417 615.2 96.949 624.938 101.438 C636.673 106.852 648.289 112.495 659.898 118.173 C671.111 123.655 682.37 129.008 693.711 134.221 C699.902 137.074 706.064 139.979 712.195 142.957 C712.889 143.294 713.582 143.631 714.297 143.978 C717.651 145.609 721.001 147.246 724.349 148.889 C730.981 152.134 737.645 155.195 744.494 157.957 C746.72 158.884 748.86 159.891 751 161 C749.347 166.838 746.53 171.928 743.688 177.25 C739.137 185.863 734.706 194.525 730.375 203.25 C726.418 211.207 722.402 219.12 718.23 226.966 C713.565 235.765 709.041 244.637 704.5 253.5 C692.36 277.184 692.36 277.184 688.225 284.895 C686.297 288.491 684.461 292.105 682.723 295.797 C682.339 296.586 681.955 297.375 681.559 298.188 C680.841 299.668 680.146 301.159 679.48 302.663 C677.594 306.484 676.024 308.374 671.957 309.832 C670.315 310.264 668.661 310.651 667 311 C666.134 311.184 665.267 311.368 664.375 311.558 C661.34 312.152 658.299 312.675 655.25 313.188 C652.733 313.623 650.216 314.059 647.699 314.496 C647.019 314.613 646.338 314.73 645.636 314.851 C640.093 315.805 634.556 316.79 629.02 317.785 C558.071 330.524 486.927 342.181 415.593 352.547 C411.438 353.151 407.285 353.77 403.134 354.397 C394.127 355.747 385.163 357.086 376.078 357.781 C363.598 358.362 363.598 358.362 353.078 364.238 C350.334 367.512 348.257 371.051 346.242 374.807 C344.172 378.462 341.574 381.691 339 385 C337.995 386.335 336.992 387.673 335.992 389.012 C334.02 391.641 332.046 394.268 330.07 396.895 C321.721 407.996 313.482 419.177 305.257 430.372 C298.075 440.148 290.843 449.883 283.546 459.574 C279.36 465.149 275.251 470.773 271.188 476.438 C266.789 482.568 262.282 488.581 257.652 494.539 C253.783 499.552 250.061 504.674 246.315 509.779 C242.082 515.544 237.801 521.27 233.491 526.978 C230.761 530.608 228.078 534.268 225.434 537.961 C224.84 538.79 224.247 539.619 223.635 540.472 C222.482 542.088 221.332 543.706 220.187 545.326 C219.669 546.053 219.151 546.779 218.617 547.527 C217.931 548.498 217.931 548.498 217.23 549.488 C216 551 216 551 214 552 C212.422 552.03 210.843 551.992 209.266 551.92 C208.281 551.877 207.297 551.835 206.282 551.791 C205.209 551.74 204.135 551.688 203.029 551.635 C201.91 551.585 200.79 551.536 199.638 551.485 C197.272 551.38 194.906 551.273 192.541 551.163 C189.202 551.009 185.863 550.863 182.524 550.719 C175.863 550.434 169.203 550.139 162.543 549.844 C160.093 549.735 157.643 549.627 155.193 549.519 C150.107 549.294 145.02 549.069 139.934 548.843 C133.472 548.557 127.01 548.271 120.547 547.986 C115.505 547.763 110.463 547.54 105.421 547.317 C103.04 547.211 100.659 547.106 98.278 547.001 C90.851 546.673 83.426 546.339 76 546 C75.041 545.957 74.082 545.914 73.094 545.869 C70.379 545.746 67.665 545.619 64.95 545.49 C64.171 545.455 63.391 545.42 62.588 545.385 C57.337 545.13 52.249 544.583 47 544 C48.98 537.4 50.96 530.8 53 524 C50.768 528.463 49.356 533.012 47.943 537.775 C47.384 539.547 46.7 541.279 46 543 C42.44 544.187 39.562 544.097 35.812 544.062 C34.54 544.053 33.268 544.044 31.957 544.035 C30.493 544.018 30.493 544.018 29 544 C29 543.67 29 543.34 29 543 C27.924 543.012 26.847 543.023 25.738 543.035 C17.69 543.094 9.757 542.967 1.734 542.219 C-0.858 542.011 -3.401 541.962 -6 542 C-6 540.35 -6 538.7 -6 537 C-6.33 537.99 -6.66 538.98 -7 540 C-7.66 540 -8.32 540 -9 540 C-10.34 538.637 -10.34 538.637 -11.938 536.688 C-15.769 532.168 -19.919 528.044 -24.156 523.906 C-26.258 521.811 -28.202 519.624 -30.129 517.367 C-33.11 513.923 -36.258 510.677 -39.496 507.477 C-39.979 507 -40.461 506.523 -40.958 506.031 C-42.963 504.054 -44.972 502.08 -46.985 500.111 C-48.472 498.654 -49.953 497.191 -51.434 495.727 C-52.311 494.866 -53.188 494.006 -54.092 493.12 C-56 491 -56 491 -56 489 C-56.66 489 -57.32 489 -58 489 C-60.187 487.5 -60.187 487.5 -62 485 C-61.595 479.744 -60.581 474.756 -59.363 469.625 C-59.203 468.946 -59.043 468.267 -58.878 467.567 C-58.36 465.377 -57.837 463.189 -57.312 461 C-56.953 459.484 -56.594 457.967 -56.234 456.451 C-53.823 446.302 -51.336 436.173 -48.728 426.072 C-48.498 425.173 -48.268 424.274 -48.031 423.348 C-47.831 422.574 -47.63 421.801 -47.424 421.004 C-46.897 418.852 -46.897 418.852 -47 416 C-47.141 416.578 -47.283 417.157 -47.429 417.753 C-48.921 423.854 -50.414 429.955 -51.907 436.056 C-52.462 438.323 -53.017 440.591 -53.571 442.858 C-56.683 455.58 -59.803 468.299 -63 481 C-70.667 474.667 -70.667 474.667 -72 472 C-73.333 471.332 -74.666 470.666 -76 470 C-80.489 466.129 -84.311 461.535 -88.168 457.051 C-90.722 454.191 -93.449 451.525 -96.203 448.859 C-101 443.896 -101 443.896 -101 441 C-101.835 440.66 -101.835 440.66 -102.688 440.312 C-105.662 438.624 -107.72 436.533 -110 434 C-110 433.34 -110 432.68 -110 432 C-111.32 431.34 -112.64 430.68 -114 430 C-114 429.01 -114 428.02 -114 427 C-116.154 425.058 -116.154 425.058 -119 423 C-122.735 420.028 -126.133 416.957 -129.234 413.32 C-132.996 408.972 -136.916 404.793 -140.875 400.625 C-145.938 395.27 -150.959 389.889 -155.863 384.387 C-158.385 381.569 -160.941 378.784 -163.5 376 C-167.627 371.507 -171.739 367.003 -175.785 362.438 C-177.335 360.732 -178.93 359.068 -180.559 357.438 C-181.385 356.592 -182.211 355.746 -183.062 354.875 C-183.817 354.13 -184.571 353.385 -185.348 352.617 C-189.334 346.302 -186.326 336.761 -185.164 329.809 C-184.969 328.616 -184.775 327.423 -184.574 326.193 C-184.043 322.95 -183.505 319.707 -182.963 316.465 C-182.623 314.425 -182.285 312.386 -181.947 310.346 C-176.05 274.731 -169.752 239.182 -162.647 203.787 C-162.262 201.868 -161.879 199.949 -161.5 198.029 C-160.98 195.411 -160.447 192.795 -159.91 190.18 C-159.761 189.418 -159.611 188.656 -159.457 187.871 C-158.047 181.155 -155.607 177.227 -150.5 172.75 C-149.611 171.969 -148.721 171.188 -147.805 170.383 C-144.202 167.322 -140.528 164.355 -136.852 161.383 C-133.811 158.842 -130.9 156.198 -128 153.5 C-123.367 149.19 -118.579 145.149 -113.648 141.18 C-111.027 139.022 -108.508 136.787 -106 134.5 C-102.625 131.423 -99.182 128.489 -95.625 125.625 C-91.072 121.944 -86.766 118.074 -82.483 114.089 C-78.372 110.286 -74.077 106.757 -69.715 103.246 C-66.893 100.912 -64.194 98.48 -61.5 96 C-57.107 91.961 -52.582 88.156 -47.941 84.406 C-44.626 81.694 -41.371 78.919 -38.125 76.125 C-37.539 75.621 -36.952 75.117 -36.348 74.598 C-35.159 73.576 -33.97 72.554 -32.782 71.532 C-12.304 53.927 -12.304 53.927 -9.117 54.105 C-6.146 55.361 -4.428 57.252 -2.188 59.562 C-1.301 60.475 -0.414 61.388 0.5 62.328 C3.066 65.07 5.519 67.883 7.957 70.738 C11.235 74.367 14.743 77.763 18.219 81.2 C21.854 84.809 25.33 88.495 28.633 92.414 C29.084 92.937 29.535 93.461 30 94 C30.708 94.878 30.708 94.878 31.43 95.773 C31.948 96.178 32.466 96.583 33 97 C37.218 96.286 40.797 94.158 44.539 92.184 C45.261 91.808 45.983 91.432 46.727 91.044 C49.029 89.846 51.327 88.642 53.625 87.438 C56.656 85.848 59.691 84.264 62.727 82.684 C63.426 82.315 64.124 81.946 64.845 81.566 C69.774 79 69.774 79 72 79 C72 78.34 72 77.68 72 77 C71.01 76.67 70.02 76.34 69 76 C67.422 74.416 67.422 74.416 65.75 72.406 C62.281 68.32 58.679 64.397 55 60.5 C53.681 59.098 52.362 57.695 51.043 56.293 C50.374 55.583 49.706 54.873 49.017 54.142 C45.778 50.703 42.545 47.258 39.312 43.812 C38.686 43.145 38.059 42.477 37.414 41.789 C33.133 37.222 28.881 32.63 24.646 28.021 C21.732 24.856 18.794 21.716 15.84 18.59 C15.121 17.829 14.402 17.069 13.662 16.285 C12.253 14.796 10.842 13.308 9.43 11.823 C0 1.857 0 1.857 0 0 Z " fill="#0A0A0A" transform="translate(225,240)"/>
<path d="M0 0 C26.686 -0.238 53.344 0.399 80.02 1.091 C83.808 1.189 87.596 1.286 91.385 1.382 C171.26 3.427 251.128 5.924 362.162 10.064 C365.26 10.185 368.359 10.306 371.458 10.426 C410.094 11.928 440.974 15.571 476.438 31.688 C477.342 32.097 478.246 32.507 479.178 32.93 C496.811 40.925 514.308 49.193 531.772 57.548 C540.251 61.603 548.749 65.616 557.25 69.625 C559.466 70.671 561.683 71.716 563.899 72.762 C565.372 73.457 566.844 74.151 568.316 74.846 C573.634 77.354 578.95 79.868 584.266 82.383 C587.344 83.839 590.422 85.294 593.5 86.75 C594.256 87.108 595.012 87.465 595.791 87.834 C605.485 92.417 615.2 96.949 624.938 101.438 C636.673 106.852 648.289 112.495 659.898 118.173 C671.111 123.655 682.37 129.008 693.711 134.221 C699.902 137.074 706.064 139.979 712.195 142.957 C712.889 143.294 713.582 143.631 714.297 143.978 C717.651 145.609 721.001 147.246 724.349 148.889 C730.981 152.134 737.645 155.195 744.494 157.957 C746.72 158.884 748.86 159.891 751 161 C749.347 166.838 746.53 171.928 743.688 177.25 C739.137 185.863 734.706 194.525 730.375 203.25 C726.418 211.207 722.402 219.12 718.23 226.966 C713.565 235.765 709.041 244.637 704.5 253.5 C692.36 277.184 692.36 277.184 688.225 284.895 C686.297 288.491 684.461 292.105 682.723 295.797 C682.339 296.586 681.955 297.375 681.559 298.188 C680.841 299.668 680.146 301.159 679.48 302.663 C677.594 306.484 676.024 308.374 671.957 309.832 C670.315 310.264 668.661 310.651 667 311 C666.134 311.184 665.267 311.368 664.375 311.558 C661.34 312.152 658.299 312.675 655.25 313.188 C652.733 313.623 650.216 314.059 647.699 314.496 C647.019 314.613 646.338 314.73 645.636 314.851 C640.093 315.805 634.556 316.79 629.02 317.785 C558.071 330.524 486.927 342.181 415.593 352.547 C411.438 353.151 407.285 353.77 403.134 354.397 C394.127 355.747 385.163 357.086 376.078 357.781 C363.598 358.362 363.598 358.362 353.078 364.238 C350.334 367.512 348.257 371.051 346.242 374.807 C344.172 378.462 341.574 381.691 339 385 C337.995 386.335 336.992 387.673 335.992 389.012 C334.02 391.641 332.046 394.268 330.07 396.895 C321.721 407.996 313.482 419.177 305.257 430.372 C298.075 440.148 290.843 449.883 283.546 459.574 C279.36 465.149 275.251 470.773 271.188 476.438 C266.789 482.568 262.282 488.581 257.652 494.539 C253.783 499.552 250.061 504.674 246.315 509.779 C242.082 515.544 237.801 521.27 233.491 526.978 C230.761 530.608 228.078 534.268 225.434 537.961 C224.84 538.79 224.247 539.619 223.635 540.472 C222.482 542.088 221.332 543.706 220.187 545.326 C219.669 546.053 219.151 546.779 218.617 547.527 C217.931 548.498 217.931 548.498 217.23 549.488 C216 551 216 551 214 552 C212.422 552.03 210.843 551.992 209.266 551.92 C208.281 551.877 207.297 551.835 206.282 551.791 C205.209 551.74 204.135 551.688 203.029 551.635 C201.91 551.585 200.79 551.536 199.638 551.485 C197.272 551.38 194.906 551.273 192.541 551.163 C189.202 551.009 185.863 550.863 182.524 550.719 C175.863 550.434 169.203 550.139 162.543 549.844 C160.093 549.735 157.643 549.627 155.193 549.519 C150.107 549.294 145.02 549.069 139.934 548.843 C133.472 548.557 127.01 548.271 120.547 547.986 C115.505 547.763 110.463 547.54 105.421 547.317 C103.04 547.211 100.659 547.106 98.278 547.001 C90.851 546.673 83.426 546.339 76 546 C75.041 545.957 74.082 545.914 73.094 545.869 C70.379 545.746 67.665 545.619 64.95 545.49 C64.171 545.455 63.391 545.42 62.588 545.385 C57.36 545.131 52.198 544.619 47 544 C51.102 530.095 55.392 516.258 59.874 502.47 C60.629 500.144 61.379 497.816 62.126 495.487 C70.844 468.327 80.898 441.67 91 415 C91.566 413.504 91.566 413.504 92.143 411.978 C94.245 406.427 96.353 400.878 98.473 395.334 C99.108 393.675 99.741 392.015 100.374 390.354 C101.244 388.074 102.119 385.797 102.996 383.52 C103.243 382.87 103.49 382.22 103.745 381.551 C112.255 359.599 135.705 337.557 156.625 326.812 C162.548 324.454 167.711 324.482 174 325 C174.884 325.072 175.768 325.144 176.679 325.218 C183.125 325.753 189.564 326.354 196 327 C194.573 330.79 192.842 334.259 190.875 337.797 C190.257 338.911 189.638 340.025 189.001 341.173 C188.334 342.365 187.667 343.558 187 344.75 C186.66 345.36 186.319 345.97 185.969 346.599 C180.957 355.58 175.863 364.505 170.587 373.334 C168.976 376.04 167.375 378.75 165.776 381.462 C150.092 408.058 150.092 408.058 142.422 420.049 C138.24 426.587 134.179 433.195 130.125 439.812 C121.844 453.31 113.427 466.72 104.754 479.969 C104.246 480.747 103.738 481.524 103.214 482.326 C102.272 483.766 101.325 485.203 100.374 486.637 C98.169 490.001 96.323 493.17 95 497 C103.81 503.939 112.621 510.845 121.794 517.299 C127.08 521.026 132.25 524.902 137.409 528.803 C139.268 530.208 141.134 531.604 143 533 C143.634 533.484 144.269 533.968 144.922 534.466 C148.559 537.306 148.559 537.306 153 538 C154.997 535.954 154.997 535.954 157 533.25 C160.355 529.002 163.803 524.953 167.5 521 C171.811 516.369 175.851 511.579 179.82 506.648 C181.978 504.027 184.213 501.508 186.5 499 C190.342 494.78 193.961 490.42 197.551 485.984 C200.318 482.612 203.152 479.303 206 476 C210.323 470.983 214.558 465.908 218.73 460.766 C221.241 457.706 223.805 454.697 226.375 451.688 C230.158 447.252 233.805 442.734 237.375 438.125 C241.78 432.442 246.419 427.008 251.164 421.606 C254.748 417.503 258.171 413.312 261.5 409 C265.91 403.291 270.549 397.826 275.3 392.399 C279.217 387.922 283.013 383.364 286.758 378.742 C289.762 375.068 292.837 371.455 295.912 367.84 C298.843 364.388 301.717 360.898 304.562 357.375 C308.434 352.617 312.5 348.073 316.66 343.566 C318.691 341.339 320.632 339.064 322.562 336.75 C330.908 327.209 339.938 322.973 352.387 321.754 C353.273 321.658 354.159 321.562 355.072 321.464 C356.963 321.26 358.855 321.061 360.747 320.866 C365.737 320.351 370.724 319.801 375.711 319.254 C376.697 319.147 377.683 319.039 378.698 318.929 C386.424 318.082 394.119 317.1 401.812 316 C409.546 314.895 417.28 313.823 425.031 312.852 C425.823 312.752 426.615 312.653 427.43 312.551 C429.064 312.346 430.698 312.141 432.331 311.936 C450.9 309.605 469.399 306.911 487.896 304.073 C493.675 303.191 499.461 302.358 505.25 301.539 C516.472 299.948 527.676 298.249 538.875 296.5 C539.934 296.335 540.993 296.17 542.085 295.999 C573.282 291.116 604.396 285.653 635.464 280.01 C636.26 279.867 637.056 279.723 637.877 279.575 C639.893 279.211 641.908 278.842 643.923 278.474 C647 278 647 278 651 278 C651.255 277.156 651.51 276.312 651.772 275.442 C653.092 271.743 654.779 268.37 656.641 264.926 C656.999 264.253 657.358 263.58 657.728 262.886 C658.898 260.693 660.074 258.503 661.25 256.312 C662.893 253.237 664.532 250.159 666.172 247.082 C666.583 246.312 666.993 245.542 667.417 244.748 C671.173 237.697 674.844 230.604 678.5 223.5 C682.724 215.299 687.019 207.156 691.631 199.166 C695.163 192.97 698.068 186.497 701 180 C675.3 168.174 675.3 168.174 649.434 156.716 C641.555 153.287 633.774 149.659 626 146 C624.699 145.388 623.397 144.776 622.096 144.164 C620.787 143.548 619.477 142.932 618.168 142.316 C617.512 142.008 616.857 141.7 616.181 141.382 C615.523 141.072 614.864 140.762 614.186 140.443 C613.195 139.978 613.195 139.978 612.185 139.503 C610.859 138.878 609.532 138.253 608.206 137.628 C598.32 132.966 588.37 128.468 578.372 124.051 C575.13 122.615 571.894 121.166 568.658 119.718 C545.578 109.385 522.422 99.25 499.162 89.331 C497.722 88.717 497.722 88.717 496.253 88.091 C494.353 87.281 492.453 86.472 490.552 85.663 C485.619 83.562 480.7 81.434 475.796 79.267 C474.26 78.59 474.26 78.59 472.693 77.9 C470.753 77.044 468.815 76.183 466.88 75.317 C448.854 67.372 431.609 67.848 412.234 67.867 C409.897 67.866 407.561 67.865 405.224 67.863 C399.014 67.86 392.805 67.864 386.595 67.871 C382.736 67.875 378.877 67.878 375.019 67.88 C340.206 67.902 305.407 67.981 270.606 68.905 C266.608 69.01 262.61 69.111 258.612 69.211 C219.065 70.209 179.53 71.463 140 73 C139.252 77.324 138.594 81.652 138 86 C137.874 86.853 137.748 87.705 137.619 88.584 C137.335 91.992 137.45 94.128 139.301 97.063 C141.12 99.197 143.033 101.129 145.062 103.062 C146.388 104.385 147.712 105.71 149.035 107.035 C150.025 108.011 150.025 108.011 151.035 109.006 C153.614 111.623 156.012 114.375 158.408 117.159 C161.28 120.481 164.292 123.679 167.277 126.898 C169 129 169 129 169 131 C167.879 131.464 166.757 131.928 165.602 132.406 C129.782 147.406 94.458 164.556 60.586 183.551 C57.885 185.065 55.175 186.564 52.465 188.062 C31.675 199.621 11.47 212.162 -8.376 225.268 C-10.242 226.5 -12.11 227.728 -13.979 228.955 C-29.965 239.408 -29.965 239.408 -45.242 250.852 C-48 253 -48 253 -51.008 254.961 C-56.047 258.253 -59.369 260.944 -61.965 266.453 C-62.721 268.049 -62.721 268.049 -63.493 269.677 C-65.931 275.052 -68.317 280.443 -70.625 285.875 C-71.14 287.084 -71.655 288.293 -72.186 289.539 C-90.589 332.894 -106.019 377.044 -120 422 C-123.409 419.233 -126.559 416.588 -129.383 413.211 C-133.079 408.882 -136.956 404.752 -140.875 400.625 C-145.938 395.27 -150.959 389.889 -155.863 384.387 C-158.385 381.569 -160.941 378.784 -163.5 376 C-167.627 371.507 -171.739 367.003 -175.785 362.438 C-177.335 360.732 -178.93 359.068 -180.559 357.438 C-181.385 356.592 -182.211 355.746 -183.062 354.875 C-183.817 354.13 -184.571 353.385 -185.348 352.617 C-189.334 346.302 -186.326 336.761 -185.164 329.809 C-184.969 328.616 -184.775 327.423 -184.574 326.193 C-184.043 322.95 -183.505 319.707 -182.963 316.465 C-182.623 314.425 -182.285 312.386 -181.947 310.346 C-176.05 274.731 -169.752 239.182 -162.647 203.787 C-162.262 201.868 -161.879 199.949 -161.5 198.029 C-160.98 195.411 -160.447 192.795 -159.91 190.18 C-159.761 189.418 -159.611 188.656 -159.457 187.871 C-158.047 181.155 -155.607 177.227 -150.5 172.75 C-149.611 171.969 -148.721 171.188 -147.805 170.383 C-144.202 167.322 -140.528 164.355 -136.852 161.383 C-133.811 158.842 -130.9 156.198 -128 153.5 C-123.367 149.19 -118.579 145.149 -113.648 141.18 C-111.027 139.022 -108.508 136.787 -106 134.5 C-102.625 131.423 -99.182 128.489 -95.625 125.625 C-91.072 121.944 -86.766 118.074 -82.483 114.089 C-78.372 110.286 -74.077 106.757 -69.715 103.246 C-66.893 100.912 -64.194 98.48 -61.5 96 C-57.107 91.961 -52.582 88.156 -47.941 84.406 C-44.626 81.694 -41.371 78.919 -38.125 76.125 C-37.539 75.621 -36.952 75.117 -36.348 74.598 C-35.159 73.576 -33.97 72.554 -32.782 71.532 C-12.304 53.927 -12.304 53.927 -9.117 54.105 C-6.146 55.361 -4.428 57.252 -2.188 59.562 C-1.301 60.475 -0.414 61.388 0.5 62.328 C3.066 65.07 5.519 67.883 7.957 70.738 C11.235 74.367 14.743 77.763 18.219 81.2 C21.854 84.809 25.33 88.495 28.633 92.414 C29.084 92.937 29.535 93.461 30 94 C30.708 94.878 30.708 94.878 31.43 95.773 C31.948 96.178 32.466 96.583 33 97 C37.218 96.286 40.797 94.158 44.539 92.184 C45.261 91.808 45.983 91.432 46.727 91.044 C49.029 89.846 51.327 88.642 53.625 87.438 C56.656 85.848 59.691 84.264 62.727 82.684 C63.426 82.315 64.124 81.946 64.845 81.566 C69.774 79 69.774 79 72 79 C72 78.34 72 77.68 72 77 C71.01 76.67 70.02 76.34 69 76 C67.422 74.416 67.422 74.416 65.75 72.406 C62.281 68.32 58.679 64.397 55 60.5 C53.681 59.098 52.362 57.695 51.043 56.293 C50.374 55.583 49.706 54.873 49.017 54.142 C45.778 50.703 42.545 47.258 39.312 43.812 C38.686 43.145 38.059 42.477 37.414 41.789 C33.133 37.222 28.881 32.63 24.646 28.021 C21.732 24.856 18.794 21.716 15.84 18.59 C15.121 17.829 14.402 17.069 13.662 16.285 C12.253 14.796 10.842 13.308 9.43 11.823 C0 1.857 0 1.857 0 0 Z " fill="#EDAF42" transform="translate(225,240)"/>
<path d="M0 0 C1.732 5.195 -1.669 9.779 -3.875 14.562 C-4.63 16.203 -4.63 16.203 -5.399 17.877 C-9.059 25.575 -12.705 31.222 -19 37 C-20.162 38.319 -21.308 39.652 -22.438 41 C-25.957 45.051 -29.766 48.781 -33.582 52.551 C-36.306 55.31 -38.835 58.192 -41.355 61.137 C-43.004 63.005 -44.723 64.755 -46.5 66.5 C-49.527 69.479 -52.346 72.58 -55.083 75.827 C-57 78 -57 78 -58.913 79.8 C-65.788 86.538 -67.816 94.26 -70.25 103.25 C-70.71 104.878 -71.171 106.505 -71.635 108.132 C-72.87 112.504 -74.07 116.886 -75.259 121.271 C-76.001 124.005 -76.751 126.737 -77.502 129.469 C-92.244 183.144 -104.719 237.296 -115 292 C-115.66 292 -116.32 292 -117 292 C-118.34 290.637 -118.34 290.637 -119.938 288.688 C-123.769 284.168 -127.919 280.044 -132.156 275.906 C-134.258 273.811 -136.202 271.624 -138.129 269.367 C-141.11 265.923 -144.258 262.677 -147.496 259.477 C-147.979 259 -148.461 258.523 -148.958 258.031 C-150.963 256.054 -152.972 254.08 -154.985 252.111 C-156.472 250.654 -157.953 249.191 -159.434 247.727 C-160.311 246.866 -161.188 246.006 -162.092 245.12 C-164 243 -164 243 -164 241 C-164.66 241 -165.32 241 -166 241 C-168.188 239.5 -168.188 239.5 -170 237 C-169.569 229.591 -167.589 222.386 -165.875 215.188 C-165.709 214.487 -165.544 213.786 -165.373 213.065 C-156.714 176.536 -147.625 140.01 -137 104 C-136.612 102.68 -136.225 101.361 -135.837 100.041 C-133.919 93.523 -131.973 87.014 -129.977 80.52 C-128.617 76.095 -127.34 71.673 -126.251 67.175 C-122.467 54.795 -110.494 49.865 -99.812 43.812 C-98.12 42.847 -98.12 42.847 -96.393 41.862 C-92.936 39.895 -89.469 37.946 -86 36 C-84.971 35.42 -83.941 34.84 -82.88 34.242 C-67.613 25.676 -52.009 18.078 -36 11 C-35.254 10.664 -34.509 10.327 -33.74 9.98 C-22.866 5.097 -11.614 2.5 0 0 Z " fill="#EDAF42" transform="translate(333,488)"/>
<path d="M0 0 C3.788 0.947 7.576 1.894 11.363 2.841 C12.39 3.098 12.39 3.098 13.438 3.359 C14.467 3.617 14.467 3.617 15.517 3.879 C16.213 4.053 16.91 4.227 17.627 4.407 C23.181 5.795 23.181 5.795 28.735 7.184 C29.856 7.464 29.856 7.464 31 7.75 C34.677 8.669 38.355 9.589 42.032 10.508 C42.748 10.687 43.464 10.866 44.201 11.05 C46.286 11.572 48.371 12.093 50.456 12.614 C52.407 13.102 54.358 13.589 56.309 14.077 C57.558 14.391 58.806 14.705 60.093 15.029 C62.877 15.726 65.666 16.399 68.458 17.062 C69.558 17.327 69.558 17.327 70.681 17.597 C72.095 17.937 73.51 18.272 74.927 18.6 C79.775 19.775 79.775 19.775 82 22 C71.373 33.603 57.632 45.298 41.492 47.473 C31.367 47.899 24.364 45.311 16.875 38.562 C8.466 29.541 1.754 16.612 0.457 4.325 C0.37 3.515 0.284 2.705 0.194 1.871 C0.13 1.253 0.066 0.636 0 0 Z " fill="#EDAF42" transform="translate(679,383)"/>
<path d="M0 0 C-2.846 2.846 -5.884 2.597 -9.719 2.93 C-11.307 3.087 -12.896 3.244 -14.484 3.402 C-16.981 3.64 -19.477 3.873 -21.975 4.099 C-34.323 5.235 -44.895 6.278 -54.188 15.25 C-54.95 15.981 -54.95 15.981 -55.728 16.727 C-59.741 20.62 -63.442 24.695 -67 29 C-68.281 30.511 -69.562 32.021 -70.844 33.531 C-74.273 37.571 -77.687 41.623 -81.082 45.691 C-81.581 46.287 -82.08 46.883 -82.595 47.497 C-83.557 48.646 -84.516 49.797 -85.472 50.95 C-88.775 54.887 -88.775 54.887 -91 56 C-89.3 51.856 -86.359 48.756 -83.438 45.438 C-82.341 44.178 -81.246 42.918 -80.152 41.656 C-79.613 41.035 -79.074 40.414 -78.519 39.773 C-76.46 37.37 -74.479 34.907 -72.5 32.438 C-58.71 15.489 -48.061 4.396 -25.606 1.989 C-23.371 1.75 -21.139 1.49 -18.906 1.227 C-12.58 0.501 -6.379 -0.097 0 0 Z " fill="#0A0A0A" transform="translate(606,558)"/>
<path d="M0 0 C0.33 0.66 0.66 1.32 1 2 C-0.058 4.606 -1.174 7.058 -2.438 9.562 C-2.797 10.282 -3.157 11.001 -3.527 11.742 C-6.568 17.602 -10.218 22.422 -15 27 C-15.66 26.67 -16.32 26.34 -17 26 C-16.329 25.273 -16.329 25.273 -15.645 24.531 C-8.876 17.027 -4.372 9.078 0 0 Z M-18 27 C-18 30 -18 30 -20.16 32.418 C-21.121 33.348 -22.089 34.271 -23.062 35.188 C-24.081 36.174 -25.098 37.162 -26.113 38.152 C-26.859 38.879 -26.859 38.879 -27.62 39.621 C-30.018 42.017 -32.191 44.595 -34.391 47.172 C-36.026 49.029 -37.735 50.766 -39.5 52.5 C-42.531 55.483 -45.339 58.6 -48.102 61.832 C-49.477 63.403 -50.895 64.938 -52.336 66.449 C-57.056 71.436 -60.153 75.35 -62 82 C-62.33 82 -62.66 82 -63 82 C-62.821 74.627 -60.554 71.556 -55.375 66.5 C-54.089 65.188 -52.804 63.876 -51.52 62.562 C-50.598 61.636 -50.598 61.636 -49.659 60.691 C-47.705 58.699 -45.869 56.626 -44.062 54.5 C-41.428 51.436 -38.624 48.604 -35.742 45.773 C-33.953 43.952 -32.287 42.063 -30.625 40.125 C-26.654 35.512 -22.346 31.258 -18 27 Z " fill="#0A0A0A" transform="translate(329,501)"/>
<path d="M0 0 C2 1 2 1 2 1 Z M-3 2 C-2.34 2.33 -1.68 2.66 -1 3 C-2.98 3.99 -2.98 3.99 -5 5 C-4.34 4.01 -3.68 3.02 -3 2 Z M-7 5 C-6.34 5.33 -5.68 5.66 -5 6 C-6.32 7.32 -7.64 8.64 -9 10 C-9.66 9.67 -10.32 9.34 -11 9 C-9.68 7.68 -8.36 6.36 -7 5 Z M-13 10 C-12.34 10.33 -11.68 10.66 -11 11 C-22.522 21.558 -22.522 21.558 -28 26 C-28.66 25.67 -29.32 25.34 -30 25 C-28.106 23.248 -26.21 21.498 -24.312 19.75 C-23.517 19.013 -23.517 19.013 -22.705 18.262 C-19.566 15.373 -16.368 12.625 -13 10 Z M-32 26 C-31.34 26.33 -30.68 26.66 -30 27 C-31.32 28.32 -32.64 29.64 -34 31 C-34.66 30.67 -35.32 30.34 -36 30 C-34.68 28.68 -33.36 27.36 -32 26 Z M-39 32 C-38.01 32.495 -38.01 32.495 -37 33 C-37.99 33.495 -37.99 33.495 -39 34 C-39 33.34 -39 32.68 -39 32 Z M-41 34 C-40.34 34.33 -39.68 34.66 -39 35 C-40.98 35.99 -40.98 35.99 -43 37 C-42.34 36.01 -41.68 35.02 -41 34 Z M-46 37 C-45.34 37.66 -44.68 38.32 -44 39 C-45.32 40.32 -46.64 41.64 -48 43 C-48.66 42.67 -49.32 42.34 -50 42 C-48.68 40.35 -47.36 38.7 -46 37 Z M-55 46 C-54.34 46.33 -53.68 46.66 -53 47 C-54.98 47.99 -54.98 47.99 -57 49 C-56.34 48.01 -55.68 47.02 -55 46 Z M-62 52 C-61.34 52.33 -60.68 52.66 -60 53 C-60.99 53.99 -61.98 54.98 -63 56 C-63.66 55.67 -64.32 55.34 -65 55 C-64.01 54.01 -63.02 53.02 -62 52 Z M-70 59 C-69.34 59.33 -68.68 59.66 -68 60 C-69.98 60.99 -69.98 60.99 -72 62 C-71.34 61.01 -70.68 60.02 -70 59 Z " fill="#0A0A0A" transform="translate(212,294)"/>
<path d="M0 0 C0 0.66 0 1.32 0 2 C-1.75 3.508 -1.75 3.508 -4 5.125 C-4.743 5.664 -5.485 6.203 -6.25 6.758 C-6.828 7.168 -7.405 7.578 -8 8 C-8.66 7.67 -9.32 7.34 -10 7 C-8.714 5.827 -7.421 4.662 -6.125 3.5 C-5.046 2.525 -5.046 2.525 -3.945 1.531 C-2 0 -2 0 0 0 Z M-11 8 C-11 8.99 -11 9.98 -11 11 C-12.961 12.853 -14.891 14.522 -17 16.188 C-17.572 16.651 -18.145 17.114 -18.734 17.592 C-20.15 18.736 -21.574 19.869 -23 21 C-23.66 20.67 -24.32 20.34 -25 20 C-23.419 18.56 -21.835 17.123 -20.25 15.688 C-19.368 14.887 -18.487 14.086 -17.578 13.262 C-15.446 11.391 -13.298 9.659 -11 8 Z M-30 24 C-29.34 24.33 -28.68 24.66 -28 25 C-33.132 30.397 -38.562 35.162 -44.375 39.812 C-47.351 42.293 -50.028 44.947 -52.66 47.785 C-54 49 -54 49 -56 49 C-56.33 50.32 -56.66 51.64 -57 53 C-57.33 52.34 -57.66 51.68 -58 51 C-56.108 47.139 -53.711 44.565 -50.5 41.75 C-49.621 40.978 -48.742 40.206 -47.836 39.41 C-44.089 36.225 -40.285 33.116 -36.445 30.043 C-34.161 28.134 -32.067 26.14 -30 24 Z " fill="#EDAF42" transform="translate(125,371)"/>
<path d="M0 0 C4.161 3.247 7.594 6.683 11.016 10.695 C13.295 13.343 15.643 15.921 18 18.5 C18.843 19.429 19.686 20.359 20.555 21.316 C22.09 23.001 23.636 24.677 25.195 26.34 C25.832 27.032 26.469 27.724 27.125 28.438 C27.684 29.034 28.244 29.631 28.82 30.246 C30 32 30 32 30 36 C27.379 37.197 24.754 38.383 22.125 39.562 C21.005 40.076 21.005 40.076 19.863 40.6 C17.935 41.46 15.969 42.236 14 43 C13.34 42.67 12.68 42.34 12 42 C14.267 40.826 16.538 39.661 18.812 38.5 C19.455 38.166 20.098 37.832 20.76 37.488 C23.695 35.998 25.661 35 29 35 C25.205 30.632 21.377 26.296 17.5 22 C14.182 18.322 10.888 14.627 7.641 10.887 C6.513 9.59 5.378 8.302 4.234 7.02 C3.683 6.394 3.131 5.769 2.562 5.125 C1.822 4.294 1.822 4.294 1.066 3.445 C0 2 0 2 0 0 Z " fill="#0A0A0A" transform="translate(365,336)"/>
<path d="M0 0 C0 3 0 3 -1.766 4.875 C-2.995 5.927 -2.995 5.927 -4.25 7 C-5.16 7.794 -6.07 8.588 -7.008 9.406 C-7.995 10.262 -8.983 11.118 -10 12 C-21.94 21.832 -21.94 21.832 -31 34 C-31.66 34 -32.32 34 -33 34 C-31.649 29.969 -29.944 27.578 -26.93 24.602 C-26.115 23.792 -25.3 22.982 -24.461 22.148 C-23.608 21.316 -22.754 20.483 -21.875 19.625 C-21.045 18.8 -20.215 17.975 -19.359 17.125 C-13.207 11.049 -6.968 5.137 0 0 Z " fill="#0A0A0A" transform="translate(365,577)"/>
<path d="M0 0 C0 0.66 0 1.32 0 2 C-0.912 2.825 -0.912 2.825 -1.843 3.667 C-4.548 6.593 -5.441 9.577 -6.508 13.32 C-6.825 14.37 -6.825 14.37 -7.149 15.441 C-7.82 17.666 -8.473 19.895 -9.125 22.125 C-9.786 24.362 -10.451 26.597 -11.123 28.83 C-11.539 30.217 -11.949 31.606 -12.351 32.997 C-13.232 35.951 -13.785 37.785 -16 40 C-15.421 35.242 -14.477 30.891 -13.004 26.332 C-12.61 25.109 -12.216 23.887 -11.811 22.627 C-11.606 22.001 -11.4 21.374 -11.189 20.729 C-10.561 18.809 -9.943 16.886 -9.326 14.963 C-5.762 3.967 -5.762 3.967 -4 1 C-2 0 -2 0 0 0 Z " fill="#0A0A0A" transform="translate(214,543)"/>
<path d="M0 0 C6.467 4.244 12.806 8.639 19.062 13.188 C19.928 13.803 20.794 14.419 21.686 15.053 C22.502 15.648 23.319 16.243 24.16 16.855 C24.899 17.388 25.638 17.921 26.399 18.469 C26.927 18.975 27.456 19.48 28 20 C28 20.99 28 21.98 28 23 C25.019 20.815 22.041 18.626 19.062 16.438 C18.232 15.828 17.401 15.219 16.545 14.592 C14.023 12.737 11.509 10.872 9 9 C8.13 8.354 7.259 7.709 6.363 7.043 C5.541 6.422 4.718 5.8 3.871 5.16 C3.127 4.601 2.382 4.041 1.615 3.465 C1.082 2.982 0.549 2.498 0 2 C0 1.34 0 0.68 0 0 Z " fill="#0A0A0A" transform="translate(343,753)"/>
<path d="M0 0 C0 0.99 0 1.98 0 3 C-0.66 2.67 -1.32 2.34 -2 2 C-1.34 1.34 -0.68 0.68 0 0 Z M-5 3 C-4.34 3.66 -3.68 4.32 -3 5 C-4.32 6.32 -5.64 7.64 -7 9 C-7.66 8.67 -8.32 8.34 -9 8 C-7.68 6.35 -6.36 4.7 -5 3 Z M-14 12 C-13.34 12.33 -12.68 12.66 -12 13 C-13.98 13.99 -13.98 13.99 -16 15 C-15.34 14.01 -14.68 13.02 -14 12 Z M-21 18 C-20.34 18.33 -19.68 18.66 -19 19 C-19.99 19.99 -20.98 20.98 -22 22 C-22.66 21.67 -23.32 21.34 -24 21 C-23.01 20.01 -22.02 19.02 -21 18 Z M-29 25 C-28.34 25.33 -27.68 25.66 -27 26 C-28.98 26.99 -28.98 26.99 -31 28 C-30.34 27.01 -29.68 26.02 -29 25 Z " fill="#0A0A0A" transform="translate(171,328)"/>
<path d="M0 0 C0 3 0 3 -1.345 4.626 C-2.269 5.482 -2.269 5.482 -3.211 6.355 C-3.879 6.977 -4.546 7.599 -5.234 8.24 C-6.294 9.204 -6.294 9.204 -7.375 10.188 C-8.423 11.169 -8.423 11.169 -9.492 12.17 C-14.73 17 -14.73 17 -17 17 C-17.33 18.32 -17.66 19.64 -18 21 C-18.33 20.34 -18.66 19.68 -19 19 C-17.061 15.003 -14.51 12.398 -11.188 9.5 C-10.307 8.728 -9.427 7.956 -8.52 7.16 C-5.702 4.744 -2.876 2.346 0 0 Z " fill="#EDAF42" transform="translate(86,403)"/>
<path d="M0 0 C0 0.33 0 0.66 0 1 C-0.56 1.086 -1.12 1.171 -1.697 1.26 C-4.236 1.649 -6.774 2.043 -9.312 2.438 C-10.194 2.572 -11.075 2.707 -11.982 2.846 C-12.83 2.978 -13.678 3.11 -14.551 3.246 C-15.331 3.367 -16.111 3.487 -16.915 3.611 C-19.183 3.985 -19.183 3.985 -22 5 C-24.043 4.879 -24.043 4.879 -26.188 4.562 C-27.446 4.377 -28.704 4.191 -30 4 C-30 3.67 -30 3.34 -30 3 C-9.468 -0.574 -9.468 -0.574 0 0 Z " fill="#EDAF42" transform="translate(628,557)"/>
<path d="M0 0 C0.66 0.33 1.32 0.66 2 1 C-1.061 6.534 -4.454 11.766 -8 17 C-8.793 18.187 -9.585 19.374 -10.375 20.562 C-10.911 21.367 -11.447 22.171 -12 23 C-12.66 22.67 -13.32 22.34 -14 22 C-9.38 14.74 -4.76 7.48 0 0 Z " fill="#0A0A0A" transform="translate(339,704)"/>
<path d="M0 0 C0.99 0.495 0.99 0.495 2 1 C1.67 1.66 1.34 2.32 1 3 C0.67 2.01 0.34 1.02 0 0 Z M3 4 C4.32 5.32 5.64 6.64 7 8 C5.68 7.34 4.36 6.68 3 6 C3 5.34 3 4.68 3 4 Z M7 8 C9.31 9.98 11.62 11.96 14 14 C13.67 14.66 13.34 15.32 13 16 C8.125 11.375 8.125 11.375 7 8 Z M14 16 C14.99 16.33 15.98 16.66 17 17 C17 17.66 17 18.32 17 19 C15.68 19.33 14.36 19.66 13 20 C13.33 18.68 13.66 17.36 14 16 Z " fill="#0A0A0A" transform="translate(280,300)"/>
<path d="M0 0 C0 4.094 -1.604 5.063 -4.375 8 C-6.83 10.618 -9.007 13.01 -11 16 C-12.32 15.67 -13.64 15.34 -15 15 C-14 13 -14 13 -12.266 12.227 C-9.132 10.53 -7.062 8.023 -4.75 5.375 C-4.291 4.859 -3.832 4.344 -3.359 3.812 C-2.234 2.547 -1.116 1.274 0 0 Z " fill="#0A0A0A" transform="translate(389,763)"/>
<path d="M0 0 C0 3.698 -0.814 4.271 -3.25 6.938 C-3.886 7.637 -4.521 8.337 -5.176 9.059 C-7.077 11.082 -8.997 13.077 -11 15 C-11.66 14.67 -12.32 14.34 -13 14 C-12.481 13.492 -11.961 12.984 -11.426 12.461 C-7.378 8.465 -3.553 4.442 0 0 Z " fill="#0A0A0A" transform="translate(300,539)"/>
<path d="M0 0 C0 3 0 3 -2 6 C-3.32 5.67 -4.64 5.34 -6 5 C-4.02 3.35 -2.04 1.7 0 0 Z M-11 9 C-10.34 9.33 -9.68 9.66 -9 10 C-10.32 11.32 -11.64 12.64 -13 14 C-13.66 13.67 -14.32 13.34 -15 13 C-13.68 11.68 -12.36 10.36 -11 9 Z " fill="#EDAF42" transform="translate(166,334)"/>
<path d="M0 0 C-7.076 3.002 -13.37 3.349 -21 3 C-21 2.67 -21 2.34 -21 2 C-18.252 1.469 -15.502 0.95 -12.75 0.438 C-11.973 0.286 -11.195 0.135 -10.395 -0.021 C-9.64 -0.16 -8.886 -0.299 -8.109 -0.441 C-7.072 -0.638 -7.072 -0.638 -6.015 -0.838 C-3.787 -1.017 -2.125 -0.652 0 0 Z " fill="#0A0A0A" transform="translate(775,572)"/>
<path d="M0 0 C4.95 1.98 4.95 1.98 10 4 C8.25 9.75 8.25 9.75 6 12 C6 9.69 6 7.38 6 5 C4.02 4.01 2.04 3.02 0 2 C0 1.34 0 0.68 0 0 Z " fill="#EDAF42" transform="translate(966,397)"/>
<path d="M0 0 C0 3 0 3 -1.75 4.824 C-2.493 5.439 -3.235 6.054 -4 6.688 C-4.743 7.31 -5.485 7.933 -6.25 8.574 C-6.827 9.045 -7.405 9.515 -8 10 C-8 7 -8 7 -6.25 5.176 C-5.507 4.561 -4.765 3.946 -4 3.312 C-3.257 2.69 -2.515 2.067 -1.75 1.426 C-1.173 0.955 -0.595 0.485 0 0 Z " fill="#0A0A0A" transform="translate(365,577)"/>
<path d="M0 0 C0 0.66 0 1.32 0 2 C-0.598 2.557 -1.196 3.114 -1.812 3.688 C-4.577 6.61 -5.562 9.261 -7 13 C-8 11 -8 11 -7.293 8.652 C-6.928 7.756 -6.563 6.861 -6.188 5.938 C-5.83 5.039 -5.473 4.141 -5.105 3.215 C-3.753 0.505 -3.018 0 0 0 Z " fill="#0A0A0A" transform="translate(214,543)"/>
<path d="M0 0 C1.32 0.33 2.64 0.66 4 1 C4 1.99 4 2.98 4 4 C2.68 2.68 1.36 1.36 0 0 Z M5 4 C5.99 4.33 6.98 4.66 8 5 C8 5.66 8 6.32 8 7 C6.68 7.33 5.36 7.66 4 8 C4.33 6.68 4.66 5.36 5 4 Z " fill="#0A0A0A" transform="translate(289,312)"/>
<path d="M0 0 C0.66 0.33 1.32 0.66 2 1 C0.502 4.112 -1.199 7.053 -3 10 C-3.33 9.34 -3.66 8.68 -4 8 C-3.223 6.055 -3.223 6.055 -2.062 3.875 C-1.682 3.151 -1.302 2.426 -0.91 1.68 C-0.61 1.125 -0.309 0.571 0 0 Z " fill="#0A0A0A" transform="translate(918,513)"/>
<path d="M0 0 C0.33 0.99 0.66 1.98 1 3 C0.361 3.248 -0.279 3.495 -0.938 3.75 C-3.187 4.816 -3.187 4.816 -3.75 7.125 C-3.832 7.744 -3.915 8.363 -4 9 C-4.33 8.34 -4.66 7.68 -5 7 C-3.567 4.271 -2.183 2.183 0 0 Z " fill="#EDAF42" transform="translate(72,415)"/>
<path d="M0 0 C0 0.66 0 1.32 0 2 C-1.65 2.66 -3.3 3.32 -5 4 C-4.67 3.01 -4.34 2.02 -4 1 C-2 0 -2 0 0 0 Z " fill="#0A0A0A" transform="translate(214,543)"/>
<path d="M0 0 C0.99 0.33 1.98 0.66 3 1 C2.67 1.66 2.34 2.32 2 3 C1.01 2.67 0.02 2.34 -1 2 C-0.67 1.34 -0.34 0.68 0 0 Z " fill="#EDAF42" transform="translate(768,536)"/>
<path d="M0 0 C0.66 0.33 1.32 0.66 2 1 C1.67 1.99 1.34 2.98 1 4 C0.34 3.34 -0.32 2.68 -1 2 C-0.67 1.34 -0.34 0.68 0 0 Z " fill="#EDAF42" transform="translate(318,735)"/>
</svg>